<svg xmlns="http://www.w3.org/2000/svg" width="1024" height="1024" viewBox="0 0 1024 1024" version="1.1">
	<path d="M 500 128.277 C 496.425 130.136, 476.625 140.677, 456 151.700 C 435.375 162.724, 410.175 176.116, 400 181.461 C 377.110 193.486, 374.543 195.220, 371.187 200.930 L 368.500 205.500 368.213 265.009 L 367.927 324.518 350.713 331.203 C 341.246 334.880, 323.440 341.742, 311.145 346.451 C 298.850 351.160, 287.527 355.913, 285.981 357.013 C 284.436 358.113, 282.008 361.349, 280.586 364.203 L 278 369.393 278 591.196 L 278 813 264.968 813 C 250.131 813, 247.097 813.847, 242.276 819.338 C 234.568 828.117, 236.023 841.678, 245.333 847.839 L 249.354 850.500 455.427 850.500 L 661.500 850.500 670 848.214 C 686.212 843.853, 701.367 835.279, 714.112 823.256 C 729.262 808.964, 737.769 794.180, 744.180 771 C 745.140 767.531, 745.548 728.362, 745.962 600 L 746.500 433.500 775.047 433 C 806.852 432.443, 807.742 432.254, 810.584 425.454 C 814.161 416.892, 815.633 419.604, 770.625 351.816 C 747.869 317.542, 727.928 287.979, 726.311 286.121 C 723.882 283.329, 722.500 282.658, 718.351 282.260 C 708.990 281.360, 710.771 279.163, 665.469 347.493 C 642.737 381.779, 623.432 411.197, 622.569 412.866 C 620.548 416.775, 620.576 421.305, 622.649 425.674 C 625.819 432.354, 626.258 432.445, 657.953 433 L 686.500 433.500 686.500 596.500 L 686.500 759.500 684.177 765.252 C 679.648 776.470, 670.932 784.867, 659.233 789.284 C 653.620 791.403, 652.214 791.455, 592.250 791.774 L 531 792.099 531 746.643 C 531 703.861, 531.103 701.212, 532.750 701.601 C 548.177 705.251, 627.094 720.227, 631.500 720.341 C 639.039 720.535, 643.844 717.823, 647.759 711.163 L 650.500 706.500 650.500 622.500 L 650.500 538.500 647.746 533.815 C 643.318 526.283, 650.070 529.735, 567.780 492.925 L 531.061 476.500 531.030 326.169 L 531 175.838 539.250 180.294 C 543.788 182.745, 559.875 191.308, 575 199.322 C 590.125 207.336, 606.100 215.833, 610.500 218.203 L 618.500 222.513 619 291.092 L 619.500 359.671 629.440 344.085 C 634.907 335.513, 643.232 322.425, 647.940 315 L 656.500 301.500 656.258 254.081 C 656.022 208.075, 655.952 206.532, 653.896 202.285 C 650.356 194.973, 655.139 197.782, 561 147.726 C 520.940 126.424, 519.275 125.646, 513 125.278 C 507.169 124.936, 505.831 125.244, 500 128.277 M 484.500 180.847 C 480.650 182.922, 466.025 190.644, 452 198.008 C 437.975 205.371, 421.775 213.894, 416 216.948 L 405.500 222.500 405.239 266.361 C 405.032 301.319, 405.235 310.124, 406.239 309.740 C 406.933 309.475, 411.747 307.801, 416.937 306.020 C 432.428 300.704, 432.012 300.572, 471.135 323.191 L 492.769 335.699 493.385 331.210 C 494.203 325.237, 494.168 199.193, 493.344 186.750 C 492.989 181.387, 492.429 177.017, 492.099 177.037 C 491.770 177.057, 488.350 178.771, 484.500 180.847 M 396.500 355.623 C 388.800 358.580, 376.425 363.340, 369 366.199 C 361.575 369.059, 346.534 374.806, 335.575 378.972 L 315.650 386.546 315.843 457.958 C 315.950 497.235, 316.158 529.491, 316.306 529.639 C 316.453 529.787, 321.507 528.344, 327.537 526.433 C 333.567 524.522, 354.475 517.976, 374 511.887 C 393.525 505.797, 409.840 500.494, 410.256 500.101 C 410.672 499.708, 410.897 465.830, 410.756 424.816 L 410.500 350.246 396.500 355.623 M 449 422.446 L 449 488.892 454.250 487.340 C 457.137 486.487, 467.150 483.439, 476.500 480.567 L 493.500 475.345 493.787 430.922 C 493.945 406.490, 493.825 385.106, 493.520 383.403 C 493.144 381.298, 492.091 379.908, 490.233 379.064 C 488.730 378.381, 479.089 372.912, 468.809 366.911 C 458.529 360.910, 449.867 356, 449.559 356 C 449.252 356, 449 385.901, 449 422.446 M 465 525.044 C 450.975 529.380, 433.087 534.833, 425.250 537.162 L 411 541.396 411 609.198 C 411 672.246, 411.119 677, 412.694 677 C 414.324 677, 467.514 666.822, 485 663.165 L 493.500 661.387 493.640 593.443 C 493.718 556.075, 493.558 523.587, 493.285 521.250 C 493.013 518.913, 492.275 517.036, 491.645 517.080 C 491.015 517.124, 479.025 520.708, 465 525.044 M 531.243 590.270 L 531.500 661.411 535.500 662.259 C 548.835 665.088, 610.648 677, 611.992 677 C 613.460 677, 613.630 672.729, 613.799 631.750 C 613.902 606.862, 613.695 579.667, 613.340 571.315 L 612.694 556.130 594.597 547.923 C 584.644 543.410, 566.260 535.084, 553.743 529.423 L 530.987 519.129 531.243 590.270 M 361.500 557.033 C 356.550 558.601, 344.490 562.332, 334.700 565.325 C 324.911 568.317, 316.644 571.022, 316.331 571.336 C 315.848 571.819, 315.782 612.458, 315.975 790.265 L 316 813.031 344.750 812.765 L 373.500 812.500 373.754 683.250 C 373.995 560.590, 373.918 554.005, 372.254 554.091 C 371.289 554.141, 366.450 555.465, 361.500 557.033 M 474 704.974 C 466.575 706.501, 449.363 709.903, 435.750 712.536 L 411 717.321 411 765.172 L 411 813.022 452.250 812.761 L 493.500 812.500 493.726 757.250 L 493.951 702 490.726 702.099 C 488.952 702.154, 481.425 703.448, 474 704.974" stroke="none" fill="#2c55dd" fill-rule="evenodd"/>
</svg>